<?xml version="1.0"?>
<svg xmlns="http://www.w3.org/2000/svg" xmlns:xlink="http://www.w3.org/1999/xlink" xmlns:svgjs="http://svgjs.com/svgjs" version="1.1" width="512" height="512" x="0" y="0" viewBox="0 0 24 24" style="enable-background:new 0 0 512 512" xml:space="preserve" class=""><g><path xmlns="http://www.w3.org/2000/svg" d="m17.5 13c-3.584 0-6.5-2.916-6.5-6.5s2.916-6.5 6.5-6.5 6.5 2.916 6.5 6.5-2.916 6.5-6.5 6.5zm0-12c-3.033 0-5.5 2.467-5.5 5.5s2.467 5.5 5.5 5.5 5.5-2.467 5.5-5.5-2.467-5.5-5.5-5.5z" fill="#d20000" data-original="#000000" style="" class=""/><path xmlns="http://www.w3.org/2000/svg" d="m20.5 7h-6c-.276 0-.5-.224-.5-.5s.224-.5.5-.5h6c.276 0 .5.224.5.5s-.224.5-.5.5z" fill="#d20000" data-original="#000000" style="" class=""/><path xmlns="http://www.w3.org/2000/svg" d="m19.5 17h-13c-.238 0-.443-.168-.49-.402l-2-10c-.03-.147.009-.299.103-.415.095-.116.237-.183.387-.183h4c.276 0 .5.224.5.5s-.224.5-.5.5h-3.39l1.8 9h12.18l.277-1.385c.054-.271.316-.448.588-.392.271.054.446.317.392.588l-.357 1.787c-.047.234-.252.402-.49.402z" fill="#d20000" data-original="#000000" style="" class=""/><path xmlns="http://www.w3.org/2000/svg" d="m6.5 17c-.233 0-.442-.164-.49-.402l-2.479-12.394c-.14-.699-.759-1.206-1.471-1.206h-.001l-1.559.002c-.276 0-.5-.224-.5-.5s.223-.5.5-.5l1.558-.002h.002c1.188 0 2.219.845 2.452 2.01l2.478 12.394c.054.271-.122.534-.392.588-.033.007-.066.01-.098.01z" fill="#d20000" data-original="#000000" style="" class=""/><path xmlns="http://www.w3.org/2000/svg" d="m21.5 19h-17c-.827 0-1.5-.673-1.5-1.5s.673-1.5 1.5-1.5h2c.276 0 .5.224.5.5s-.224.5-.5.5h-2c-.276 0-.5.224-.5.5s.224.5.5.5h17c.276 0 .5.224.5.5s-.224.5-.5.5z" fill="#d20000" data-original="#000000" style="" class=""/><path xmlns="http://www.w3.org/2000/svg" d="m8 24c-1.103 0-2-.897-2-2s.897-2 2-2 2 .897 2 2-.897 2-2 2zm0-3c-.551 0-1 .449-1 1s.449 1 1 1 1-.449 1-1-.449-1-1-1z" fill="#d20000" data-original="#000000" style="" class=""/><path xmlns="http://www.w3.org/2000/svg" d="m17 24c-1.103 0-2-.897-2-2s.897-2 2-2 2 .897 2 2-.897 2-2 2zm0-3c-.551 0-1 .449-1 1s.449 1 1 1 1-.449 1-1-.449-1-1-1z" fill="#d20000" data-original="#000000" style="" class=""/></g></svg>
